# xmcd
# 
# Track frame offsets:
#     150
#     19616
#     42482
#     55669
#     72021
#     95388
#     106608
#     123514
#     137694
#     155876
#     176218
#     195713
#     216046
#     233765
# 
# Disc length: 3354
# 
# Revision: 4
# Processed by: cddbd v1.5.2PL0 Copyright (c) Steve Scherf et al.
# Submitted via: BonkEnc v1.0.8
# 
DISCID=be0d180e
DTITLE=Various Artist - Innamorati
DYEAR=0
DGENRE=Pop
TTITLE0=Zizi Possi - Per Amore
TTITLE1=Gianluca Grignani - La Mia Storia Tra Le Dita
TTITLE2=Ellen de Alburquerque - E Po Che Fà
TTITLE3=Wess and Dori Guezzi - Noi Due per Sempre
TTITLE4=Lucio Dalla - Caruso
TTITLE5=Domenico Modugno - Dio Come Ti Amo
TTITLE6=Sergio Endrigo - Io Che Amo Solo Te
TTITLE7=Bobby Solo - Una Lacrima Sul Viso
TTITLE8=Umberto Marcato - Tornero
TTITLE9=Luciano Bruno - Strani Amori
TTITLE10=Agnaldo Rayol  - Charlotte Church - Tormento D'amore
TTITLE11=Jerry Adriani  - Mafalda Minnozzi - Con Te Partirò
TTITLE12=Paolo Vergani - Champagne
TTITLE13=Luciano Rossini - Innamorati
EXTD=
EXTT0=
EXTT1=
EXTT2=
EXTT3=
EXTT4=
EXTT5=
EXTT6=
EXTT7=
EXTT8=
EXTT9=
EXTT10=
EXTT11=
EXTT12=
EXTT13=
PLAYORDER=
